<svg width="18" height="14" viewBox="0 0 18 14" fill="none" xmlns="http://www.w3.org/2000/svg"><g clip-path="url(#clip0_118_3640)"><path d="M9 2.91667C9 4.52749 7.7408 5.83333 6.1875 5.83333C4.6342 5.83333 3.375 4.52749 3.375 2.91667C3.375 1.30584 4.6342 0 6.1875 0C7.7408 0 9 1.30584 9 2.91667Z" fill="#E8BD70"/><path d="M2.25 8.1665L0 10.4998V13.9998H9V8.1665H2.25Z" fill="#E8BD70"/><path d="M18 10.4998L15.75 8.1665H11.25V13.9998H18V10.4998Z" fill="#E8BD70"/><path d="M13.5 5.83317C14.7427 5.83317 15.75 4.7885 15.75 3.49984C15.75 2.21117 14.7427 1.1665 13.5 1.1665C12.2573 1.1665 11.25 2.21117 11.25 3.49984C11.25 4.7885 12.2573 5.83317 13.5 5.83317Z" fill="#E8BD70"/></g><defs><clipPath id="clip0_118_3640"><rect width="18" height="14" fill="white"/></clipPath></defs></svg>